<mxfile host="Electron" agent="Mozilla/5.0 (Windows NT 10.0; Win64; x64) AppleWebKit/537.36 (KHTML, like Gecko) draw.io/28.0.6 Chrome/138.0.7204.100 Electron/37.2.3 Safari/537.36" version="28.0.6">
  <diagram name="Página-1" id="txPRHYmsKgjHrLZpPKi9">
    <mxGraphModel dx="1763" dy="1183" grid="0" gridSize="10" guides="1" tooltips="1" connect="1" arrows="1" fold="1" page="1" pageScale="1" pageWidth="1169" pageHeight="827" math="0" shadow="0">
      <root>
        <mxCell id="0" />
        <mxCell id="1" parent="0" />
        <mxCell id="SaTmb7l_9GKVEBW_Qtbw-1" value="Roles" style="rounded=1;whiteSpace=wrap;html=1;" parent="1" vertex="1">
          <mxGeometry x="180" y="260" width="60" height="40" as="geometry" />
        </mxCell>
        <mxCell id="SaTmb7l_9GKVEBW_Qtbw-2" value="&lt;u&gt;idRol&lt;/u&gt;" style="ellipse;whiteSpace=wrap;html=1;" parent="1" vertex="1">
          <mxGeometry x="110" y="190" width="80" height="30" as="geometry" />
        </mxCell>
        <mxCell id="SaTmb7l_9GKVEBW_Qtbw-3" value="" style="endArrow=none;html=1;rounded=0;entryX=0.5;entryY=1;entryDx=0;entryDy=0;exitX=0;exitY=0;exitDx=0;exitDy=0;" parent="1" source="SaTmb7l_9GKVEBW_Qtbw-1" target="SaTmb7l_9GKVEBW_Qtbw-2" edge="1">
          <mxGeometry width="50" height="50" relative="1" as="geometry">
            <mxPoint x="60" y="340" as="sourcePoint" />
            <mxPoint x="110" y="290" as="targetPoint" />
          </mxGeometry>
        </mxCell>
        <mxCell id="SaTmb7l_9GKVEBW_Qtbw-4" value="&lt;u&gt;descripcionRol&lt;/u&gt;" style="ellipse;whiteSpace=wrap;html=1;" parent="1" vertex="1">
          <mxGeometry x="230" y="180" width="110" height="40" as="geometry" />
        </mxCell>
        <mxCell id="SaTmb7l_9GKVEBW_Qtbw-5" value="" style="endArrow=none;html=1;rounded=0;entryX=1;entryY=0;entryDx=0;entryDy=0;exitX=0.318;exitY=0.968;exitDx=0;exitDy=0;exitPerimeter=0;" parent="1" source="SaTmb7l_9GKVEBW_Qtbw-4" target="SaTmb7l_9GKVEBW_Qtbw-1" edge="1">
          <mxGeometry width="50" height="50" relative="1" as="geometry">
            <mxPoint x="230" y="410" as="sourcePoint" />
            <mxPoint x="280" y="360" as="targetPoint" />
          </mxGeometry>
        </mxCell>
        <mxCell id="SaTmb7l_9GKVEBW_Qtbw-6" value="gestiona" style="rhombus;whiteSpace=wrap;html=1;" parent="1" vertex="1">
          <mxGeometry x="280" y="255" width="110" height="50" as="geometry" />
        </mxCell>
        <mxCell id="SaTmb7l_9GKVEBW_Qtbw-8" value="Permisos" style="rounded=1;whiteSpace=wrap;html=1;" parent="1" vertex="1">
          <mxGeometry x="430" y="260" width="100" height="40" as="geometry" />
        </mxCell>
        <mxCell id="SaTmb7l_9GKVEBW_Qtbw-9" value="" style="fontSize=12;html=1;endArrow=ERone;endFill=1;rounded=0;entryX=1;entryY=0.5;entryDx=0;entryDy=0;exitX=0;exitY=0.5;exitDx=0;exitDy=0;" parent="1" source="SaTmb7l_9GKVEBW_Qtbw-6" target="SaTmb7l_9GKVEBW_Qtbw-1" edge="1">
          <mxGeometry width="100" height="100" relative="1" as="geometry">
            <mxPoint x="310" y="660" as="sourcePoint" />
            <mxPoint x="410" y="560" as="targetPoint" />
          </mxGeometry>
        </mxCell>
        <mxCell id="SaTmb7l_9GKVEBW_Qtbw-10" value="Usuarios" style="rounded=1;whiteSpace=wrap;html=1;" parent="1" vertex="1">
          <mxGeometry x="175" y="480" width="70" height="40" as="geometry" />
        </mxCell>
        <mxCell id="SaTmb7l_9GKVEBW_Qtbw-11" value="tiene" style="rhombus;whiteSpace=wrap;html=1;" parent="1" vertex="1">
          <mxGeometry x="175" y="360" width="70" height="40" as="geometry" />
        </mxCell>
        <mxCell id="SaTmb7l_9GKVEBW_Qtbw-12" value="" style="fontSize=12;html=1;endArrow=ERmany;rounded=0;entryX=0.5;entryY=0;entryDx=0;entryDy=0;exitX=0.5;exitY=1;exitDx=0;exitDy=0;" parent="1" source="SaTmb7l_9GKVEBW_Qtbw-11" target="SaTmb7l_9GKVEBW_Qtbw-10" edge="1">
          <mxGeometry width="100" height="100" relative="1" as="geometry">
            <mxPoint x="180" y="540" as="sourcePoint" />
            <mxPoint x="280" y="440" as="targetPoint" />
          </mxGeometry>
        </mxCell>
        <mxCell id="SaTmb7l_9GKVEBW_Qtbw-13" value="" style="fontSize=12;html=1;endArrow=ERone;endFill=1;rounded=0;entryX=0.5;entryY=1;entryDx=0;entryDy=0;" parent="1" source="SaTmb7l_9GKVEBW_Qtbw-11" target="SaTmb7l_9GKVEBW_Qtbw-1" edge="1">
          <mxGeometry width="100" height="100" relative="1" as="geometry">
            <mxPoint x="310" y="420" as="sourcePoint" />
            <mxPoint x="250" y="340" as="targetPoint" />
          </mxGeometry>
        </mxCell>
        <mxCell id="SaTmb7l_9GKVEBW_Qtbw-14" value="idUsuario" style="ellipse;whiteSpace=wrap;html=1;align=center;fontStyle=4;" parent="1" vertex="1">
          <mxGeometry x="25" y="610" width="75" height="30" as="geometry" />
        </mxCell>
        <mxCell id="SaTmb7l_9GKVEBW_Qtbw-15" value="rol_id" style="ellipse;whiteSpace=wrap;html=1;align=center;" parent="1" vertex="1">
          <mxGeometry x="15" y="510" width="100" height="40" as="geometry" />
        </mxCell>
        <mxCell id="SaTmb7l_9GKVEBW_Qtbw-16" value="correoUsuario" style="ellipse;whiteSpace=wrap;html=1;align=center;" parent="1" vertex="1">
          <mxGeometry x="20" y="340" width="100" height="40" as="geometry" />
        </mxCell>
        <mxCell id="SaTmb7l_9GKVEBW_Qtbw-17" value="documentoUsuario" style="ellipse;whiteSpace=wrap;html=1;align=center;" parent="1" vertex="1">
          <mxGeometry x="15" y="450" width="110" height="40" as="geometry" />
        </mxCell>
        <mxCell id="SaTmb7l_9GKVEBW_Qtbw-18" value="contraseñaUsuario" style="ellipse;whiteSpace=wrap;html=1;align=center;" parent="1" vertex="1">
          <mxGeometry x="10" y="560" width="120" height="30" as="geometry" />
        </mxCell>
        <mxCell id="SaTmb7l_9GKVEBW_Qtbw-19" value="&lt;u&gt;idTIcket&lt;/u&gt;" style="ellipse;whiteSpace=wrap;html=1;align=center;" parent="1" vertex="1">
          <mxGeometry x="585" y="526" width="90" height="40" as="geometry" />
        </mxCell>
        <mxCell id="SaTmb7l_9GKVEBW_Qtbw-20" value="nombreUsuario" style="ellipse;whiteSpace=wrap;html=1;align=center;" parent="1" vertex="1">
          <mxGeometry x="25" y="394" width="100" height="40" as="geometry" />
        </mxCell>
        <mxCell id="SaTmb7l_9GKVEBW_Qtbw-21" value="descripcionTicket" style="ellipse;whiteSpace=wrap;html=1;align=center;" parent="1" vertex="1">
          <mxGeometry x="400" y="630" width="120" height="30" as="geometry" />
        </mxCell>
        <mxCell id="SaTmb7l_9GKVEBW_Qtbw-22" value="" style="endArrow=none;html=1;rounded=0;entryX=0;entryY=0.5;entryDx=0;entryDy=0;exitX=1;exitY=0.5;exitDx=0;exitDy=0;" parent="1" source="SaTmb7l_9GKVEBW_Qtbw-15" target="SaTmb7l_9GKVEBW_Qtbw-10" edge="1">
          <mxGeometry width="50" height="50" relative="1" as="geometry">
            <mxPoint x="30" y="440" as="sourcePoint" />
            <mxPoint x="80" y="390" as="targetPoint" />
          </mxGeometry>
        </mxCell>
        <mxCell id="SaTmb7l_9GKVEBW_Qtbw-23" value="" style="endArrow=none;html=1;rounded=0;entryX=0;entryY=0.5;entryDx=0;entryDy=0;exitX=1;exitY=0.5;exitDx=0;exitDy=0;" parent="1" source="SaTmb7l_9GKVEBW_Qtbw-20" target="SaTmb7l_9GKVEBW_Qtbw-10" edge="1">
          <mxGeometry width="50" height="50" relative="1" as="geometry">
            <mxPoint x="140" y="580" as="sourcePoint" />
            <mxPoint x="190" y="530" as="targetPoint" />
          </mxGeometry>
        </mxCell>
        <mxCell id="SaTmb7l_9GKVEBW_Qtbw-24" value="" style="endArrow=none;html=1;rounded=0;entryX=0;entryY=0.5;entryDx=0;entryDy=0;exitX=1;exitY=0.5;exitDx=0;exitDy=0;" parent="1" source="SaTmb7l_9GKVEBW_Qtbw-17" target="SaTmb7l_9GKVEBW_Qtbw-10" edge="1">
          <mxGeometry width="50" height="50" relative="1" as="geometry">
            <mxPoint x="190" y="590" as="sourcePoint" />
            <mxPoint x="240" y="540" as="targetPoint" />
          </mxGeometry>
        </mxCell>
        <mxCell id="SaTmb7l_9GKVEBW_Qtbw-25" value="" style="endArrow=none;html=1;rounded=0;entryX=0;entryY=0.5;entryDx=0;entryDy=0;exitX=1;exitY=0.5;exitDx=0;exitDy=0;" parent="1" source="SaTmb7l_9GKVEBW_Qtbw-18" target="SaTmb7l_9GKVEBW_Qtbw-10" edge="1">
          <mxGeometry width="50" height="50" relative="1" as="geometry">
            <mxPoint x="130" y="670" as="sourcePoint" />
            <mxPoint x="180" y="620" as="targetPoint" />
          </mxGeometry>
        </mxCell>
        <mxCell id="SaTmb7l_9GKVEBW_Qtbw-26" value="" style="endArrow=none;html=1;rounded=0;entryX=0;entryY=0.5;entryDx=0;entryDy=0;exitX=1;exitY=0.5;exitDx=0;exitDy=0;" parent="1" source="SaTmb7l_9GKVEBW_Qtbw-14" target="SaTmb7l_9GKVEBW_Qtbw-10" edge="1">
          <mxGeometry width="50" height="50" relative="1" as="geometry">
            <mxPoint x="370" y="660" as="sourcePoint" />
            <mxPoint x="420" y="610" as="targetPoint" />
          </mxGeometry>
        </mxCell>
        <mxCell id="SaTmb7l_9GKVEBW_Qtbw-27" value="" style="endArrow=none;html=1;rounded=0;entryX=1;entryY=0.5;entryDx=0;entryDy=0;exitX=0;exitY=0.5;exitDx=0;exitDy=0;" parent="1" source="SaTmb7l_9GKVEBW_Qtbw-10" target="SaTmb7l_9GKVEBW_Qtbw-16" edge="1">
          <mxGeometry width="50" height="50" relative="1" as="geometry">
            <mxPoint x="240" y="480" as="sourcePoint" />
            <mxPoint x="290" y="430" as="targetPoint" />
          </mxGeometry>
        </mxCell>
        <mxCell id="SaTmb7l_9GKVEBW_Qtbw-28" value="Tickets" style="rounded=1;whiteSpace=wrap;html=1;direction=west;" parent="1" vertex="1">
          <mxGeometry x="450" y="486" width="70" height="30" as="geometry" />
        </mxCell>
        <mxCell id="SaTmb7l_9GKVEBW_Qtbw-29" value="administra" style="rhombus;whiteSpace=wrap;html=1;" parent="1" vertex="1">
          <mxGeometry x="290" y="476" width="120" height="50" as="geometry" />
        </mxCell>
        <mxCell id="MCarTXFx132W-c3fH0K--2" value="" style="fontSize=12;html=1;endArrow=ERmany;rounded=0;entryX=1;entryY=0.5;entryDx=0;entryDy=0;exitX=1;exitY=0.5;exitDx=0;exitDy=0;" edge="1" parent="1" source="SaTmb7l_9GKVEBW_Qtbw-29" target="SaTmb7l_9GKVEBW_Qtbw-28">
          <mxGeometry width="100" height="100" relative="1" as="geometry">
            <mxPoint x="230" y="616" as="sourcePoint" />
            <mxPoint x="310" y="696" as="targetPoint" />
          </mxGeometry>
        </mxCell>
        <mxCell id="MCarTXFx132W-c3fH0K--3" value="" style="fontSize=12;html=1;endArrow=ERone;endFill=1;rounded=0;entryX=1;entryY=0.5;entryDx=0;entryDy=0;" edge="1" parent="1" source="SaTmb7l_9GKVEBW_Qtbw-29" target="SaTmb7l_9GKVEBW_Qtbw-10">
          <mxGeometry width="100" height="100" relative="1" as="geometry">
            <mxPoint x="230" y="420" as="sourcePoint" />
            <mxPoint x="230" y="360" as="targetPoint" />
          </mxGeometry>
        </mxCell>
        <mxCell id="MCarTXFx132W-c3fH0K--4" value="cliente_id" style="ellipse;whiteSpace=wrap;html=1;align=center;" vertex="1" parent="1">
          <mxGeometry x="350" y="530" width="80" height="30" as="geometry" />
        </mxCell>
        <mxCell id="MCarTXFx132W-c3fH0K--5" value="correoCliente" style="ellipse;whiteSpace=wrap;html=1;align=center;" vertex="1" parent="1">
          <mxGeometry x="840" y="640" width="100" height="40" as="geometry" />
        </mxCell>
        <mxCell id="MCarTXFx132W-c3fH0K--6" value="categoria_id" style="ellipse;whiteSpace=wrap;html=1;align=center;" vertex="1" parent="1">
          <mxGeometry x="500" y="545" width="85" height="25" as="geometry" />
        </mxCell>
        <mxCell id="MCarTXFx132W-c3fH0K--7" value="usuario_id" style="ellipse;whiteSpace=wrap;html=1;align=center;" vertex="1" parent="1">
          <mxGeometry x="320" y="570" width="80" height="30" as="geometry" />
        </mxCell>
        <mxCell id="MCarTXFx132W-c3fH0K--8" value="documentoCliente" style="ellipse;whiteSpace=wrap;html=1;align=center;" vertex="1" parent="1">
          <mxGeometry x="740" y="610" width="110" height="40" as="geometry" />
        </mxCell>
        <mxCell id="MCarTXFx132W-c3fH0K--9" value="telefonoCliente" style="ellipse;whiteSpace=wrap;html=1;align=center;" vertex="1" parent="1">
          <mxGeometry x="940" y="545" width="100" height="40" as="geometry" />
        </mxCell>
        <mxCell id="MCarTXFx132W-c3fH0K--10" value="fechaEntrega" style="ellipse;whiteSpace=wrap;html=1;align=center;" vertex="1" parent="1">
          <mxGeometry x="390" y="590" width="90" height="30" as="geometry" />
        </mxCell>
        <mxCell id="MCarTXFx132W-c3fH0K--11" value="fechaRecibido" style="ellipse;whiteSpace=wrap;html=1;align=center;" vertex="1" parent="1">
          <mxGeometry x="497.5" y="590" width="100" height="40" as="geometry" />
        </mxCell>
        <mxCell id="MCarTXFx132W-c3fH0K--12" value="" style="fontSize=12;html=1;endArrow=ERone;endFill=1;rounded=0;entryX=0;entryY=0.5;entryDx=0;entryDy=0;exitX=1;exitY=0.5;exitDx=0;exitDy=0;" edge="1" parent="1" source="SaTmb7l_9GKVEBW_Qtbw-6" target="SaTmb7l_9GKVEBW_Qtbw-8">
          <mxGeometry width="100" height="100" relative="1" as="geometry">
            <mxPoint x="300" y="280" as="sourcePoint" />
            <mxPoint x="260" y="280" as="targetPoint" />
          </mxGeometry>
        </mxCell>
        <mxCell id="MCarTXFx132W-c3fH0K--13" value="" style="endArrow=none;html=1;rounded=0;entryX=0.5;entryY=0;entryDx=0;entryDy=0;exitX=0.5;exitY=0;exitDx=0;exitDy=0;" edge="1" parent="1" source="MCarTXFx132W-c3fH0K--4" target="SaTmb7l_9GKVEBW_Qtbw-28">
          <mxGeometry width="50" height="50" relative="1" as="geometry">
            <mxPoint x="540" y="420" as="sourcePoint" />
            <mxPoint x="590" y="370" as="targetPoint" />
          </mxGeometry>
        </mxCell>
        <mxCell id="MCarTXFx132W-c3fH0K--14" value="" style="endArrow=none;html=1;rounded=0;entryX=0.5;entryY=0;entryDx=0;entryDy=0;exitX=0.5;exitY=0;exitDx=0;exitDy=0;" edge="1" parent="1" source="MCarTXFx132W-c3fH0K--6" target="SaTmb7l_9GKVEBW_Qtbw-28">
          <mxGeometry width="50" height="50" relative="1" as="geometry">
            <mxPoint x="680" y="430" as="sourcePoint" />
            <mxPoint x="730" y="380" as="targetPoint" />
          </mxGeometry>
        </mxCell>
        <mxCell id="MCarTXFx132W-c3fH0K--15" value="" style="endArrow=none;html=1;rounded=0;entryX=0.5;entryY=0;entryDx=0;entryDy=0;exitX=1;exitY=0.5;exitDx=0;exitDy=0;" edge="1" parent="1" source="MCarTXFx132W-c3fH0K--7" target="SaTmb7l_9GKVEBW_Qtbw-28">
          <mxGeometry width="50" height="50" relative="1" as="geometry">
            <mxPoint x="600" y="490" as="sourcePoint" />
            <mxPoint x="650" y="440" as="targetPoint" />
          </mxGeometry>
        </mxCell>
        <mxCell id="MCarTXFx132W-c3fH0K--16" value="" style="endArrow=none;html=1;rounded=0;entryX=0.5;entryY=0;entryDx=0;entryDy=0;exitX=0.5;exitY=0;exitDx=0;exitDy=0;" edge="1" parent="1" source="MCarTXFx132W-c3fH0K--10" target="SaTmb7l_9GKVEBW_Qtbw-28">
          <mxGeometry width="50" height="50" relative="1" as="geometry">
            <mxPoint x="770" y="480" as="sourcePoint" />
            <mxPoint x="820" y="430" as="targetPoint" />
          </mxGeometry>
        </mxCell>
        <mxCell id="MCarTXFx132W-c3fH0K--17" value="" style="endArrow=none;html=1;rounded=0;entryX=0.5;entryY=0;entryDx=0;entryDy=0;exitX=0.79;exitY=0.011;exitDx=0;exitDy=0;exitPerimeter=0;" edge="1" parent="1" source="SaTmb7l_9GKVEBW_Qtbw-21" target="SaTmb7l_9GKVEBW_Qtbw-28">
          <mxGeometry width="50" height="50" relative="1" as="geometry">
            <mxPoint x="820" y="420" as="sourcePoint" />
            <mxPoint x="870" y="370" as="targetPoint" />
          </mxGeometry>
        </mxCell>
        <mxCell id="MCarTXFx132W-c3fH0K--18" value="" style="endArrow=none;html=1;rounded=0;entryX=0.5;entryY=0;entryDx=0;entryDy=0;exitX=0.098;exitY=0.238;exitDx=0;exitDy=0;exitPerimeter=0;" edge="1" parent="1" source="MCarTXFx132W-c3fH0K--11" target="SaTmb7l_9GKVEBW_Qtbw-28">
          <mxGeometry width="50" height="50" relative="1" as="geometry">
            <mxPoint x="790" y="450" as="sourcePoint" />
            <mxPoint x="840" y="400" as="targetPoint" />
          </mxGeometry>
        </mxCell>
        <mxCell id="MCarTXFx132W-c3fH0K--19" value="" style="endArrow=none;html=1;rounded=0;entryX=0.5;entryY=0;entryDx=0;entryDy=0;exitX=0;exitY=0;exitDx=0;exitDy=0;" edge="1" parent="1" source="SaTmb7l_9GKVEBW_Qtbw-19" target="SaTmb7l_9GKVEBW_Qtbw-28">
          <mxGeometry width="50" height="50" relative="1" as="geometry">
            <mxPoint x="600" y="450" as="sourcePoint" />
            <mxPoint x="650" y="400" as="targetPoint" />
          </mxGeometry>
        </mxCell>
        <mxCell id="MCarTXFx132W-c3fH0K--20" value="&lt;u&gt;idPermisos&lt;/u&gt;" style="ellipse;whiteSpace=wrap;html=1;align=center;" vertex="1" parent="1">
          <mxGeometry x="510" y="140" width="100" height="40" as="geometry" />
        </mxCell>
        <mxCell id="MCarTXFx132W-c3fH0K--21" value="rol_id" style="ellipse;whiteSpace=wrap;html=1;align=center;" vertex="1" parent="1">
          <mxGeometry x="450" y="180" width="60" height="30" as="geometry" />
        </mxCell>
        <mxCell id="MCarTXFx132W-c3fH0K--22" value="descripcionPermiso" style="ellipse;whiteSpace=wrap;html=1;align=center;" vertex="1" parent="1">
          <mxGeometry x="360" y="130" width="120" height="40" as="geometry" />
        </mxCell>
        <mxCell id="MCarTXFx132W-c3fH0K--23" value="Attribute" style="ellipse;whiteSpace=wrap;html=1;align=center;" vertex="1" parent="1">
          <mxGeometry x="360" y="70" width="100" height="40" as="geometry" />
        </mxCell>
        <mxCell id="MCarTXFx132W-c3fH0K--24" value="&lt;u&gt;idCliente&lt;/u&gt;" style="ellipse;whiteSpace=wrap;html=1;align=center;" vertex="1" parent="1">
          <mxGeometry x="730" y="545.5" width="100" height="40" as="geometry" />
        </mxCell>
        <mxCell id="MCarTXFx132W-c3fH0K--25" value="&lt;u&gt;idCategoria&lt;/u&gt;" style="ellipse;whiteSpace=wrap;html=1;align=center;" vertex="1" parent="1">
          <mxGeometry x="830" y="290" width="100" height="40" as="geometry" />
        </mxCell>
        <mxCell id="MCarTXFx132W-c3fH0K--26" value="nombreCliente" style="ellipse;whiteSpace=wrap;html=1;align=center;" vertex="1" parent="1">
          <mxGeometry x="940" y="610" width="100" height="40" as="geometry" />
        </mxCell>
        <mxCell id="MCarTXFx132W-c3fH0K--27" value="" style="endArrow=none;html=1;rounded=0;entryX=0.5;entryY=0;entryDx=0;entryDy=0;exitX=0.5;exitY=1;exitDx=0;exitDy=0;" edge="1" parent="1" source="MCarTXFx132W-c3fH0K--20" target="SaTmb7l_9GKVEBW_Qtbw-8">
          <mxGeometry width="50" height="50" relative="1" as="geometry">
            <mxPoint x="350" y="220" as="sourcePoint" />
            <mxPoint x="400" y="170" as="targetPoint" />
          </mxGeometry>
        </mxCell>
        <mxCell id="MCarTXFx132W-c3fH0K--28" value="" style="endArrow=none;html=1;rounded=0;exitX=0.5;exitY=1;exitDx=0;exitDy=0;entryX=0.5;entryY=0;entryDx=0;entryDy=0;" edge="1" parent="1" source="MCarTXFx132W-c3fH0K--22" target="SaTmb7l_9GKVEBW_Qtbw-8">
          <mxGeometry width="50" height="50" relative="1" as="geometry">
            <mxPoint x="360" y="410" as="sourcePoint" />
            <mxPoint x="580" y="350" as="targetPoint" />
          </mxGeometry>
        </mxCell>
        <mxCell id="MCarTXFx132W-c3fH0K--29" value="" style="endArrow=none;html=1;rounded=0;entryX=0.5;entryY=0;entryDx=0;entryDy=0;exitX=0.5;exitY=1;exitDx=0;exitDy=0;" edge="1" parent="1" source="MCarTXFx132W-c3fH0K--21" target="SaTmb7l_9GKVEBW_Qtbw-8">
          <mxGeometry width="50" height="50" relative="1" as="geometry">
            <mxPoint x="600" y="240" as="sourcePoint" />
            <mxPoint x="650" y="190" as="targetPoint" />
          </mxGeometry>
        </mxCell>
        <mxCell id="MCarTXFx132W-c3fH0K--30" value="Clientes" style="rounded=1;whiteSpace=wrap;html=1;" vertex="1" parent="1">
          <mxGeometry x="850" y="526" width="80" height="30" as="geometry" />
        </mxCell>
        <mxCell id="MCarTXFx132W-c3fH0K--31" value="Categorías" style="rounded=1;whiteSpace=wrap;html=1;" vertex="1" parent="1">
          <mxGeometry x="720" y="330" width="80" height="30" as="geometry" />
        </mxCell>
        <mxCell id="MCarTXFx132W-c3fH0K--32" value="atribuido" style="rhombus;whiteSpace=wrap;html=1;" vertex="1" parent="1">
          <mxGeometry x="580" y="446" width="110" height="40" as="geometry" />
        </mxCell>
        <mxCell id="MCarTXFx132W-c3fH0K--33" value="asociado" style="rhombus;whiteSpace=wrap;html=1;" vertex="1" parent="1">
          <mxGeometry x="575" y="370" width="110" height="40" as="geometry" />
        </mxCell>
        <mxCell id="MCarTXFx132W-c3fH0K--34" value="" style="edgeStyle=entityRelationEdgeStyle;fontSize=12;html=1;endArrow=ERmany;rounded=0;entryX=0;entryY=0.5;entryDx=0;entryDy=0;exitX=0;exitY=0.5;exitDx=0;exitDy=0;" edge="1" parent="1" source="MCarTXFx132W-c3fH0K--32" target="SaTmb7l_9GKVEBW_Qtbw-28">
          <mxGeometry width="100" height="100" relative="1" as="geometry">
            <mxPoint x="430" y="470" as="sourcePoint" />
            <mxPoint x="530" y="370" as="targetPoint" />
          </mxGeometry>
        </mxCell>
        <mxCell id="MCarTXFx132W-c3fH0K--36" value="" style="edgeStyle=orthogonalEdgeStyle;fontSize=12;html=1;endArrow=ERmany;rounded=0;entryX=0.5;entryY=1;entryDx=0;entryDy=0;exitX=0;exitY=0.5;exitDx=0;exitDy=0;" edge="1" parent="1" source="MCarTXFx132W-c3fH0K--33" target="SaTmb7l_9GKVEBW_Qtbw-28">
          <mxGeometry width="100" height="100" relative="1" as="geometry">
            <mxPoint x="440" y="380" as="sourcePoint" />
            <mxPoint x="380" y="415" as="targetPoint" />
          </mxGeometry>
        </mxCell>
        <mxCell id="MCarTXFx132W-c3fH0K--37" value="" style="edgeStyle=orthogonalEdgeStyle;fontSize=12;html=1;endArrow=ERone;endFill=1;rounded=0;entryX=0;entryY=0.5;entryDx=0;entryDy=0;exitX=1;exitY=0.5;exitDx=0;exitDy=0;" edge="1" parent="1" source="MCarTXFx132W-c3fH0K--33" target="MCarTXFx132W-c3fH0K--31">
          <mxGeometry width="100" height="100" relative="1" as="geometry">
            <mxPoint x="630" y="760" as="sourcePoint" />
            <mxPoint x="730" y="660" as="targetPoint" />
          </mxGeometry>
        </mxCell>
        <mxCell id="MCarTXFx132W-c3fH0K--38" value="" style="edgeStyle=orthogonalEdgeStyle;fontSize=12;html=1;endArrow=ERone;endFill=1;rounded=0;entryX=0.5;entryY=0;entryDx=0;entryDy=0;exitX=1;exitY=0.5;exitDx=0;exitDy=0;" edge="1" parent="1" source="MCarTXFx132W-c3fH0K--32" target="MCarTXFx132W-c3fH0K--30">
          <mxGeometry width="100" height="100" relative="1" as="geometry">
            <mxPoint x="800" y="515" as="sourcePoint" />
            <mxPoint x="835" y="470" as="targetPoint" />
          </mxGeometry>
        </mxCell>
        <mxCell id="MCarTXFx132W-c3fH0K--39" value="" style="endArrow=none;html=1;rounded=0;entryX=0.5;entryY=1;entryDx=0;entryDy=0;exitX=1;exitY=0.5;exitDx=0;exitDy=0;" edge="1" parent="1" source="MCarTXFx132W-c3fH0K--24" target="MCarTXFx132W-c3fH0K--30">
          <mxGeometry width="50" height="50" relative="1" as="geometry">
            <mxPoint x="750" y="790" as="sourcePoint" />
            <mxPoint x="800" y="740" as="targetPoint" />
          </mxGeometry>
        </mxCell>
        <mxCell id="MCarTXFx132W-c3fH0K--40" value="" style="endArrow=none;html=1;rounded=0;entryX=0.5;entryY=1;entryDx=0;entryDy=0;exitX=1;exitY=0;exitDx=0;exitDy=0;" edge="1" parent="1" source="MCarTXFx132W-c3fH0K--8" target="MCarTXFx132W-c3fH0K--30">
          <mxGeometry width="50" height="50" relative="1" as="geometry">
            <mxPoint x="900" y="770" as="sourcePoint" />
            <mxPoint x="950" y="720" as="targetPoint" />
          </mxGeometry>
        </mxCell>
        <mxCell id="MCarTXFx132W-c3fH0K--41" value="" style="endArrow=none;html=1;rounded=0;entryX=0.5;entryY=1;entryDx=0;entryDy=0;exitX=0.5;exitY=0;exitDx=0;exitDy=0;" edge="1" parent="1" source="MCarTXFx132W-c3fH0K--5" target="MCarTXFx132W-c3fH0K--30">
          <mxGeometry width="50" height="50" relative="1" as="geometry">
            <mxPoint x="720" y="800" as="sourcePoint" />
            <mxPoint x="770" y="750" as="targetPoint" />
          </mxGeometry>
        </mxCell>
        <mxCell id="MCarTXFx132W-c3fH0K--42" value="" style="endArrow=none;html=1;rounded=0;entryX=0.5;entryY=1;entryDx=0;entryDy=0;exitX=0;exitY=0.5;exitDx=0;exitDy=0;" edge="1" parent="1" source="MCarTXFx132W-c3fH0K--9" target="MCarTXFx132W-c3fH0K--30">
          <mxGeometry width="50" height="50" relative="1" as="geometry">
            <mxPoint x="900" y="640" as="sourcePoint" />
            <mxPoint x="950" y="590" as="targetPoint" />
          </mxGeometry>
        </mxCell>
        <mxCell id="MCarTXFx132W-c3fH0K--43" value="" style="endArrow=none;html=1;rounded=0;entryX=0.5;entryY=1;entryDx=0;entryDy=0;exitX=0;exitY=0.5;exitDx=0;exitDy=0;" edge="1" parent="1" source="MCarTXFx132W-c3fH0K--26" target="MCarTXFx132W-c3fH0K--30">
          <mxGeometry width="50" height="50" relative="1" as="geometry">
            <mxPoint x="880" y="770" as="sourcePoint" />
            <mxPoint x="930" y="720" as="targetPoint" />
          </mxGeometry>
        </mxCell>
        <mxCell id="MCarTXFx132W-c3fH0K--44" value="descripcionCategoria" style="ellipse;whiteSpace=wrap;html=1;align=center;" vertex="1" parent="1">
          <mxGeometry x="815" y="350" width="150" height="30" as="geometry" />
        </mxCell>
        <mxCell id="MCarTXFx132W-c3fH0K--45" value="" style="endArrow=none;html=1;rounded=0;entryX=0;entryY=0.5;entryDx=0;entryDy=0;exitX=1;exitY=0.5;exitDx=0;exitDy=0;" edge="1" parent="1" source="MCarTXFx132W-c3fH0K--31" target="MCarTXFx132W-c3fH0K--25">
          <mxGeometry width="50" height="50" relative="1" as="geometry">
            <mxPoint x="630" y="300" as="sourcePoint" />
            <mxPoint x="680" y="250" as="targetPoint" />
          </mxGeometry>
        </mxCell>
        <mxCell id="MCarTXFx132W-c3fH0K--47" value="" style="endArrow=none;html=1;rounded=0;entryX=0;entryY=0.5;entryDx=0;entryDy=0;exitX=1;exitY=0.5;exitDx=0;exitDy=0;" edge="1" parent="1" source="MCarTXFx132W-c3fH0K--31" target="MCarTXFx132W-c3fH0K--44">
          <mxGeometry width="50" height="50" relative="1" as="geometry">
            <mxPoint x="790" y="235" as="sourcePoint" />
            <mxPoint x="820" y="190" as="targetPoint" />
          </mxGeometry>
        </mxCell>
      </root>
    </mxGraphModel>
  </diagram>
</mxfile>
